# xmcd CD database file generated by Grip 3.2.0
# 
# Track frame offsets:
#       182
#       19745
#       37140
#       50080
#       65405
#       80962
#       98997
#       121142
#       139075
#       158382
#       178427
#       192482
#       208827
#       226825
#       246800
#       266212
#       287895
#       307675
# 
# Disc length: 4439 seconds
# 
# Revision: 2
# Processed by: cddbd v1.5.2PL0 Copyright (c) Steve Scherf et al.
# Submitted via: Grip 3.2.0
# 
DISCID=0d115512
DTITLE=Inconnu - Inconnu
DYEAR=1900
DGENRE=Alternative
TTITLE0=Piste 1
TTITLE1=Piste 2
TTITLE2=Piste 3
TTITLE3=Piste 4
TTITLE4=Piste 5
TTITLE5=Piste 6
TTITLE6=Piste 7
TTITLE7=Piste 8
TTITLE8=Piste 9
TTITLE9=Piste 10
TTITLE10=Piste 11
TTITLE11=Piste 12
TTITLE12=Piste 13
TTITLE13=Piste 14
TTITLE14=Piste 15
TTITLE15=Piste 16
TTITLE16=Piste 17
TTITLE17=Piste 18
EXTD=
EXTT0=
EXTT1=
EXTT2=
EXTT3=
EXTT4=
EXTT5=
EXTT6=
EXTT7=
EXTT8=
EXTT9=
EXTT10=
EXTT11=
EXTT12=
EXTT13=
EXTT14=
EXTT15=
EXTT16=
EXTT17=
PLAYORDER=
